<svg xmlns="http://www.w3.org/2000/svg" aria-hidden="true" style="position:absolute;width:0;height:0;overflow:hidden">
  <defs>
    <symbol id="icon-antenna" viewBox="0 0 64 64">
      <path fill="currentColor" fill-rule="evenodd" d="M32 4a20 20 0 0 1 20 20h-4a16 16 0 0 0-32 0h-4A20 20 0 0 1 32 4Zm0 8a12 12 0 0 1 12 12h-4a8 8 0 0 0-16 0h-4a12 12 0 0 1 12-12Z" clip-rule="evenodd"/>
      <circle cx="32" cy="20" r="6" fill="currentColor"/>
      <path fill="currentColor" d="M30 36h4v18h-4zM21 52h22v4H21z"/>
    </symbol>
    <symbol id="icon-clock" viewBox="0 0 64 64">
      <path fill="currentColor" fill-rule="evenodd" d="M32 6c14.36 0 26 11.64 26 26S46.36 58 32 58 6 46.36 6 32 17.64 6 32 6Zm0 6C21.51 12 13 20.51 13 31s8.51 19 19 19 19-8.51 19-19S42.49 12 32 12Z" clip-rule="evenodd"/>
      <path fill="currentColor" d="M34 32V17h-4v18a2 2 0 0 0 .59 1.41l11 11 2.82-2.82-10.41-10.4Z"/>
    </symbol>
    <symbol id="icon-diagram" viewBox="0 0 64 64">
      <rect width="10" height="20" x="6" y="38" rx="2" fill="currentColor"/>
      <rect width="10" height="32" x="24" y="26" rx="2" fill="currentColor"/>
      <rect width="10" height="44" x="42" y="14" rx="2" fill="currentColor"/>
      <path fill="currentColor" d="M4 56h56v4H4z"/>
    </symbol>
    <symbol id="icon-astronaut" viewBox="0 0 64 64">
      <path fill="currentColor" fill-rule="evenodd" d="M32 8a12 12 0 0 1 12 12v4a12 12 0 0 1-24 0v-4A12 12 0 0 1 32 8Zm0 4a8 8 0 0 0-8 8v4a8 8 0 0 0 16 0v-4a8 8 0 0 0-8-8Z" clip-rule="evenodd"/>
      <path fill="currentColor" d="M16 50c0-8.84 7.16-16 16-16s16 7.16 16 16v10H16zM10 36h8v8h-8zM46 36h8v8h-8z"/>
    </symbol>
    <symbol id="icon-instagram" viewBox="0 0 16 16">
      <path fill="currentColor" fill-rule="evenodd" d="M5 1h6a4 4 0 0 1 4 4v6a4 4 0 0 1-4 4H5a4 4 0 0 1-4-4V5a4 4 0 0 1 4-4Zm0 2a2 2 0 0 0-2 2v6a2 2 0 0 0 2 2h6a2 2 0 0 0 2-2V5a2 2 0 0 0-2-2H5Zm3 2a3 3 0 1 1 0 6 3 3 0 0 1 0-6Zm0 2a1 1 0 1 0 0 2 1 1 0 0 0 0-2Zm4-3.25a1 1 0 1 1-2 0 1 1 0 0 1 2 0Z" clip-rule="evenodd"/>
    </symbol>
    <symbol id="icon-twitter" viewBox="0 0 16 16">
      <path fill="currentColor" d="M15.95 3.54a6.6 6.6 0 0 1-1.89.52 3.28 3.28 0 0 0 1.44-1.81 6.56 6.56 0 0 1-2.07.79 3.28 3.28 0 0 0-5.6 2.24c0 .26.03.52.08.76A9.33 9.33 0 0 1 1.11 2.1a3.28 3.28 0 0 0 1.02 4.38 3.26 3.26 0 0 1-1.49-.41v.04a3.28 3.28 0 0 0 2.63 3.22 3.3 3.3 0 0 1-.86.11 3.2 3.2 0 0 1-.61-.06 3.28 3.28 0 0 0 3.06 2.28A6.58 6.58 0 0 1 .78 13.4a6.72 6.72 0 0 1-.78-.05A9.29 9.29 0 0 0 5.03 15c6.03 0 9.33-5 9.33-9.33 0-.14 0-.28-.01-.42a6.68 6.68 0 0 0 1.6-1.71Z"/>
    </symbol>
    <symbol id="icon-facebook" viewBox="0 0 16 16">
      <path fill="currentColor" d="M9 5V4a2 2 0 0 1 2-2h2V0H9a4 4 0 0 0-4 4v1H3v3h2v8h3V8h3l1-3H9Z"/>
    </symbol>
    <symbol id="icon-linkedin" viewBox="0 0 16 16">
      <path fill="currentColor" d="M2 6h3v9H2zm1.5-5A1.5 1.5 0 1 1 2 2.5 1.5 1.5 0 0 1 3.5 1ZM7 6h3v1.48h.05c.44-.83 1.51-1.7 3.02-1.7 2.03 0 2.93 1.3 2.93 3.47V15h-3v-4.9c0-1.16-.41-1.94-1.4-1.94-.76 0-1.2.51-1.39 1-.07.19-.09.45-.09.71V15H7z"/>
    </symbol>
  </defs>
</svg>